<svg xmlns="http://www.w3.org/2000/svg" viewBox="0 0 240 320" role="img" aria-labelledby="title desc">
  <title id="title">Format 4 Preview</title>
  <desc id="desc">A report layout thumbnail with a dark header and clean content blocks.</desc>
  <defs>
    <linearGradient id="bg" x1="0" y1="0" x2="1" y2="1">
      <stop offset="0%" stop-color="#0f172a"/>
      <stop offset="100%" stop-color="#1e3a8a"/>
    </linearGradient>
    <linearGradient id="panel" x1="0" y1="0" x2="0" y2="1">
      <stop offset="0%" stop-color="#ffffff"/>
      <stop offset="100%" stop-color="#eef2ff"/>
    </linearGradient>
  </defs>
  <rect x="12" y="12" width="216" height="296" rx="20" fill="url(#panel)" stroke="#94a3b8" stroke-width="4"/>
  <rect x="24" y="24" width="192" height="54" rx="12" fill="url(#bg)"/>
  <rect x="36" y="42" width="92" height="8" rx="4" fill="#ffffff"/>
  <rect x="36" y="56" width="60" height="6" rx="3" fill="#bfdbfe"/>
  <rect x="24" y="92" width="192" height="56" rx="12" fill="#dbeafe"/>
  <rect x="36" y="108" width="88" height="8" rx="4" fill="#1e40af"/>
  <rect x="36" y="124" width="152" height="6" rx="3" fill="#60a5fa"/>
  <rect x="36" y="135" width="128" height="6" rx="3" fill="#93c5fd"/>
  <rect x="24" y="162" width="192" height="36" rx="10" fill="#f8fafc" stroke="#cbd5e1"/>
  <rect x="36" y="173" width="70" height="6" rx="3" fill="#0f172a"/>
  <rect x="140" y="170" width="54" height="12" rx="6" fill="#22c55e"/>
  <rect x="24" y="210" width="192" height="36" rx="10" fill="#f8fafc" stroke="#cbd5e1"/>
  <rect x="36" y="221" width="120" height="6" rx="3" fill="#475569"/>
  <rect x="36" y="232" width="96" height="6" rx="3" fill="#94a3b8"/>
  <rect x="24" y="256" width="192" height="24" rx="8" fill="#e2e8f0"/>
  <rect x="36" y="264" width="54" height="8" rx="4" fill="#64748b"/>
  <rect x="154" y="260" width="48" height="12" rx="6" fill="#f59e0b"/>
</svg>
